<?xml version="1.0" encoding="UTF-8"?>
<svg width="96px" height="96px" viewBox="0 0 96 96" version="1.1" xmlns="http://www.w3.org/2000/svg" xmlns:xlink="http://www.w3.org/1999/xlink">
    <title>CY Monogram Square Circle Webflow_vector</title>
    <g id="CY-Monogram-Square-Circle-Webflow" stroke="none" stroke-width="1" fill="none" fill-rule="evenodd">
        <g id="Circle" transform="translate(8.000000, 8.000000)">
            <circle id="Oval" fill="#1D1E1F" cx="40" cy="40" r="40"></circle>
            <path d="M30.452198,23 C30.9190476,23 31.377042,23.0127296 31.8247479,23.0365767 L31.8243416,25.1830111 C31.3559041,25.1236491 30.8674006,25.0923616 30.3570906,25.0923616 C23.4142544,25.0923616 20.4659266,31.4170001 20.5134803,38.4549437 C20.5134803,41.4508251 21.3694464,47.2999269 24.7457572,50.8664523 C27.8367459,54.0525484 30.5473053,54.4329778 32.1641302,54.4329778 C37.5852489,54.4329778 41.6273111,51.9601868 43.386797,49.3447348 C43.60295,48.9988899 43.8191031,48.8102472 44.0352562,48.9217179 L44.1001021,48.9643054 L44.9085145,49.6776105 C45.0511755,49.7727178 45.0987292,49.9629325 44.9085145,50.2482546 C42.1504015,54.2427631 37.5376952,58.0946106 30.8326273,58.0946106 C24.5079888,58.0946106 21.1792317,56.3826784 18.1833503,53.7196727 C14.6643786,50.5811303 13,45.1124579 13,41.022842 C13,36.1248137 14.5692712,31.7023221 17.8980283,28.1357967 C20.6085877,25.2350226 24.5555425,23 30.452198,23 Z M34.2027997,23.0792561 C34.6432705,23.0792561 36.9435074,23.2260798 41.2992751,23.2260798 L41.2992751,23.2260798 L42.0137993,23.2250657 C46.5090829,23.2121049 48.1259771,23.0792561 48.5915154,23.0792561 C48.8851627,23.0792561 48.9341039,23.1771385 48.9341039,23.4218446 L48.9341039,23.4218446 L48.9341039,24.6453748 C48.9341039,24.8900809 48.8851627,25.0858457 48.5915154,25.0858457 L48.5915154,25.0858457 L47.4658676,25.0858457 C46.7806906,25.0858457 46.2912785,25.5752578 46.2912785,26.3583172 C46.2912785,26.8361161 48.0045161,30.3516725 49.7833941,33.9221325 L49.7833941,33.9221325 L50.7800753,35.9166445 C51.1073696,36.5703038 51.426111,37.2062309 51.7254388,37.8047635 L51.7254388,37.8047635 L52.1585127,38.6720588 C52.7129108,39.7845037 53.1679333,40.7080459 53.4366952,41.2853863 C54.0921578,40.0837048 55.6254722,37.3604136 57.1222094,34.5785989 L57.4802559,33.9105889 L57.4802559,33.9105889 L57.8340887,33.2448261 C59.4126417,30.260692 60.7778767,27.4813432 60.7778767,26.7498469 C60.7778767,25.9178463 59.9458761,25.0858457 58.9181107,25.0858457 L58.9181107,25.0858457 L57.5966981,25.0858457 C57.3030508,25.0858457 57.2541096,24.9390221 57.2541096,24.6453748 L57.2541096,24.6453748 L57.2541096,23.3729034 C57.2541096,23.1771385 57.3030508,23.0792561 57.5966981,23.0792561 C58.0861102,23.0792561 60.0926998,23.2260798 63.7143493,23.2260798 L63.7143493,23.2260798 L64.0340254,23.2256313 C67.1600957,23.21676 68.1822082,23.0792561 68.6084703,23.0792561 C68.9510588,23.0792561 69,23.1771385 69,23.4707858 L69,23.4707858 L69,24.6453748 C69,24.9390221 68.9510588,25.0858457 68.6084703,25.0858457 L68.6084703,25.0858457 L67.7275285,25.0858457 C67.140234,25.0858457 65.6719977,25.379493 64.9378796,26.2604348 C64.6095285,26.6645591 62.417154,30.1971145 60.0963788,34.0393956 L59.7560381,34.6035645 L59.7560381,34.6035645 L59.585558,34.8866937 L59.169114,35.5798449 C57.2983594,38.6986145 55.4937319,41.7755513 54.6602255,43.3409171 L54.6602255,43.3409171 L54.6607761,48.9825821 C54.6636834,49.5524333 54.6778628,50.2144594 54.6976069,50.8750588 L54.6976069,50.8750588 L54.7133692,51.3687782 C54.7466239,52.3498319 54.7891888,53.2750241 54.8218015,53.8284485 L54.8218015,53.8284485 L54.8371892,54.0727176 C54.8443792,54.1778993 54.8507466,54.2565548 54.8559903,54.3037481 C55.0028139,55.8698669 55.7369321,56.0166905 56.5199914,56.0166905 L56.5199914,56.0166905 L57.9392865,56.0166905 C58.281875,56.0166905 58.281875,56.1635141 58.281875,56.359279 L58.2815324,57.6664987 C58.2784491,57.904353 58.2476162,58.0232801 57.9392865,58.0232801 C57.351992,58.0232801 55.4432848,57.8764565 50.8428111,57.8764565 L50.4852888,57.8767022 C45.9155777,57.8830398 44.3731647,58.0099469 43.7812408,58.022313 L43.7812408,58.022313 L43.6973944,58.0232801 C43.5016296,58.0232801 43.4037471,57.8764565 43.4037471,57.533868 L43.4037471,57.533868 L43.4037471,56.359279 C43.4037471,56.1635141 43.4526884,56.0166905 43.7463356,56.0166905 L43.7463356,56.0166905 L45.459278,56.0166905 C46.7317494,56.0166905 47.1232791,55.5272784 47.1722203,54.8910427 C47.2211615,54.2058657 47.3190439,50.3395101 47.3190439,45.7879776 L47.3190439,45.7879776 L47.3190439,43.6835056 C47.1649995,43.3850444 46.7382206,42.592252 46.1426592,41.4985017 L46.1426592,41.4985017 L45.8312946,40.9274419 C44.9660486,39.3425109 43.8315455,37.2798393 42.6741904,35.197793 L42.6741904,35.197793 L42.2395923,34.4170128 C40.1385096,30.6475059 38.063539,27.0025761 37.4818607,26.2114936 C36.8945662,25.4773754 35.7199772,25.0858457 34.9369178,25.0858457 L34.9369178,25.0858457 L34.2027997,25.0858457 C33.9091524,25.0858457 33.8602112,24.9390221 33.8602112,24.7432573 L33.8602112,24.7432573 L33.8602112,23.3729034 C33.8602112,23.1771385 33.9091524,23.0792561 34.2027997,23.0792561 Z" id="CY-Monogram-Copy" fill="#FFFFFF" fill-rule="nonzero"></path>
        </g>
    </g>
</svg>